<svg width="92" height="103" viewBox="0 0 92 103" fill="none" xmlns="http://www.w3.org/2000/svg">
<rect x="1.5" y="12.5" width="89" height="89" rx="8.5" fill="#1363DF" stroke="white" stroke-width="3"/>
<rect x="15" y="26" width="62" height="62" rx="31" fill="#DFF6FF"/>
<rect x="19" y="30" width="54" height="54" rx="27" fill="#47B5FF"/>
<g filter="url(#filter0_d_107_26)">
<path d="M21.6605 61V52.2727H25.2656C25.919 52.2727 26.483 52.4006 26.9574 52.6562C27.4347 52.9091 27.8026 53.2628 28.0611 53.7173C28.3196 54.169 28.4489 54.6946 28.4489 55.294C28.4489 55.8963 28.3168 56.4233 28.0526 56.875C27.7912 57.3239 27.4176 57.6719 26.9318 57.919C26.446 58.1662 25.8693 58.2898 25.2017 58.2898H22.9773V56.6278H24.8097C25.1278 56.6278 25.3935 56.5724 25.6065 56.4616C25.8224 56.3509 25.9858 56.196 26.0966 55.9972C26.2074 55.7955 26.2628 55.5611 26.2628 55.294C26.2628 55.0241 26.2074 54.7912 26.0966 54.5952C25.9858 54.3963 25.8224 54.2429 25.6065 54.1349C25.3906 54.027 25.125 53.973 24.8097 53.973H23.7699V61H21.6605ZM31.598 52.2727V61H29.4886V52.2727H31.598ZM40.8441 55.4347H38.7134C38.685 55.2159 38.6268 55.0185 38.5387 54.8423C38.4506 54.6662 38.3342 54.5156 38.1893 54.3906C38.0444 54.2656 37.8725 54.1705 37.6737 54.1051C37.4776 54.0369 37.2603 54.0028 37.0217 54.0028C36.5984 54.0028 36.2333 54.1065 35.9265 54.3139C35.6225 54.5213 35.3881 54.821 35.2234 55.2131C35.0614 55.6051 34.9805 56.0795 34.9805 56.6364C34.9805 57.2159 35.0629 57.7017 35.2276 58.0938C35.3952 58.483 35.6296 58.777 35.9308 58.9759C36.2347 59.1719 36.5941 59.2699 37.0089 59.2699C37.2418 59.2699 37.4535 59.2401 37.6438 59.1804C37.837 59.1207 38.006 59.0341 38.1509 58.9205C38.2987 58.804 38.4194 58.6634 38.5131 58.4986C38.6097 58.331 38.6765 58.142 38.7134 57.9318L40.8441 57.9446C40.8072 58.331 40.695 58.7116 40.5075 59.0866C40.3228 59.4616 40.0685 59.804 39.7447 60.1136C39.4208 60.4205 39.0259 60.6648 38.56 60.8466C38.0969 61.0284 37.5657 61.1193 36.9663 61.1193C36.1765 61.1193 35.4691 60.946 34.8441 60.5994C34.2219 60.25 33.7305 59.7415 33.3697 59.0739C33.0089 58.4062 32.8285 57.5937 32.8285 56.6364C32.8285 55.6761 33.0117 54.8622 33.3782 54.1946C33.7447 53.527 34.2404 53.0199 34.8654 52.6733C35.4904 52.3267 36.1907 52.1534 36.9663 52.1534C37.4947 52.1534 37.9833 52.2273 38.4322 52.375C38.881 52.5199 39.2759 52.733 39.6168 53.0142C39.9577 53.2926 40.2347 53.6349 40.4478 54.0412C40.6609 54.4474 40.793 54.9119 40.8441 55.4347ZM42.0511 61V52.2727H44.1605V55.9631H44.2756L47.1605 52.2727H49.6449L46.5511 56.1676L49.7003 61H47.1776L45.0043 57.5696L44.1605 58.6349V61H42.0511ZM53.055 52.2727H55.6673L57.8832 57.6761H57.9854L60.2013 52.2727H62.8136V61H60.7596V55.6392H60.6871L58.5906 60.9446H57.2781L55.1815 55.6094H55.109V61H53.055V52.2727ZM64.1293 61V52.2727H70.2145V53.9858H66.2386V55.7756H69.9034V57.4929H66.2386V59.2869H70.2145V61H64.1293Z" fill="#1363DF"/>
</g>
<circle cx="30" cy="50" r="1" fill="#DFF6FF"/>
<circle cx="31.5" cy="47.5" r="1.5" fill="#DFF6FF"/>
<circle cx="31.5" cy="51.5" r="0.5" fill="#DFF6FF"/>
<path d="M25 0.5H71C76.2467 0.5 80.5 4.7533 80.5 10V10.5H15.5V10C15.5 4.75329 19.7533 0.5 25 0.5Z" fill="#DFF6FF" stroke="white"/>
<circle cx="27" cy="6" r="3" fill="#1363DF"/>
<circle cx="34" cy="6" r="2" fill="#1363DF"/>
<circle cx="40" cy="6" r="2" fill="#1363DF"/>
<rect x="63" y="5" width="12" height="2" rx="1" fill="#06283D"/>
<defs>
<filter id="filter0_d_107_26" x="20.6605" y="52.1534" width="50.554" height="10.9658" filterUnits="userSpaceOnUse" color-interpolation-filters="sRGB">
<feFlood flood-opacity="0" result="BackgroundImageFix"/>
<feColorMatrix in="SourceAlpha" type="matrix" values="0 0 0 0 0 0 0 0 0 0 0 0 0 0 0 0 0 0 127 0" result="hardAlpha"/>
<feOffset dy="1"/>
<feGaussianBlur stdDeviation="0.5"/>
<feComposite in2="hardAlpha" operator="out"/>
<feColorMatrix type="matrix" values="0 0 0 0 0 0 0 0 0 0 0 0 0 0 0 0 0 0 0.25 0"/>
<feBlend mode="normal" in2="BackgroundImageFix" result="effect1_dropShadow_107_26"/>
<feBlend mode="normal" in="SourceGraphic" in2="effect1_dropShadow_107_26" result="shape"/>
</filter>
</defs>
</svg>
