<svg width="67" height="67" viewBox="0 0 67 67" fill="none" xmlns="http://www.w3.org/2000/svg">
<path d="M41.3167 25.1248C40.811 24.2475 40.0762 23.5243 39.191 23.0325C38.3059 22.5408 37.3037 22.299 36.2917 22.3331H30.7083C29.2275 22.3331 27.8074 22.9213 26.7603 23.9684C25.7132 25.0155 25.125 26.4356 25.125 27.9164C25.125 29.3972 25.7132 30.8174 26.7603 31.8644C27.8074 32.9115 29.2275 33.4998 30.7083 33.4998H36.2917C37.7725 33.4998 39.1926 34.088 40.2397 35.1351C41.2868 36.1822 41.875 37.6023 41.875 39.0831C41.875 40.5639 41.2868 41.984 40.2397 43.0311C39.1926 44.0782 37.7725 44.6664 36.2917 44.6664H30.7083C29.6963 44.7005 28.6941 44.4587 27.809 43.967C26.9238 43.4752 26.189 42.752 25.6833 41.8748M33.5 19.5417V47.4583M8.375 33.5C8.375 36.7995 9.02488 40.0666 10.2875 43.1149C11.5502 46.1632 13.4009 48.933 15.7339 51.2661C18.067 53.5991 20.8368 55.4498 23.8851 56.7125C26.9334 57.9751 30.2005 58.625 33.5 58.625C36.7995 58.625 40.0666 57.9751 43.1149 56.7125C46.1632 55.4498 48.933 53.5991 51.2661 51.2661C53.5991 48.933 55.4498 46.1632 56.7125 43.1149C57.9751 40.0666 58.625 36.7995 58.625 33.5C58.625 30.2005 57.9751 26.9334 56.7125 23.8851C55.4498 20.8368 53.5991 18.067 51.2661 15.7339C48.933 13.4009 46.1632 11.5502 43.1149 10.2875C40.0666 9.02488 36.7995 8.375 33.5 8.375C30.2005 8.375 26.9334 9.02488 23.8851 10.2875C20.8368 11.5502 18.067 13.4009 15.7339 15.7339C13.4009 18.067 11.5502 20.8368 10.2875 23.8851C9.02488 26.9334 8.375 30.2005 8.375 33.5Z" stroke="black" stroke-width="5" stroke-linecap="round" stroke-linejoin="round"/>
</svg>
