<svg width="136" height="108" viewBox="0 0 136 108" fill="none" xmlns="http://www.w3.org/2000/svg">
<path d="M136 23.8608V87.7499C136 92.9151 134.012 97.8852 130.442 101.643C126.873 105.401 121.991 107.663 116.797 107.966L115.6 108H20.4C15.1966 108 10.1897 106.027 6.40383 102.483C2.61795 98.9398 0.339269 94.0942 0.0340008 88.9379L0 87.7499V23.8608L64.226 66.3658L65.0148 66.8113C65.9444 67.2621 66.9654 67.4965 68 67.4965C69.0346 67.4965 70.0556 67.2621 70.9852 66.8113L71.774 66.3658L136 23.8608Z" fill="black"/>
<path d="M115.6 0C122.944 0 129.384 3.84752 132.974 9.6323L68 52.63L3.026 9.6323C4.73096 6.88347 7.07345 4.57923 9.85801 2.91185C12.6426 1.24446 15.7885 0.262281 19.0332 0.0472501L20.4 0H115.6Z" fill="black"/>
<path d="M136 23.8608V87.7499C136 92.9151 134.012 97.8852 130.442 101.643C126.873 105.401 121.991 107.663 116.797 107.966L115.6 108H20.4C15.1966 108 10.1897 106.027 6.40383 102.483C2.61795 98.9398 0.339269 94.0942 0.0340008 88.9379L0 87.7499V23.8608L64.226 66.3658L65.0148 66.8113C65.9444 67.2621 66.9654 67.4965 68 67.4965C69.0346 67.4965 70.0556 67.2621 70.9852 66.8113L71.774 66.3658L136 23.8608Z" stroke="black"/>
<path d="M115.6 0C122.944 0 129.384 3.84752 132.974 9.6323L68 52.63L3.026 9.6323C4.73096 6.88347 7.07345 4.57923 9.85801 2.91185C12.6426 1.24446 15.7885 0.262281 19.0332 0.0472501L20.4 0H115.6Z" stroke="black"/>
</svg>
