<svg width="119" height="119" viewBox="0 0 119 119" fill="none" xmlns="http://www.w3.org/2000/svg">
<path d="M108.625 108.625L75.875 75.875M10.375 48.5833C10.375 53.6009 11.3633 58.5694 13.2834 63.205C15.2036 67.8407 18.018 72.0527 21.566 75.6007C25.1139 79.1487 29.326 81.9631 33.9616 83.8832C38.5973 85.8034 43.5657 86.7917 48.5833 86.7917C53.6009 86.7917 58.5694 85.8034 63.205 83.8832C67.8407 81.9631 72.0527 79.1487 75.6007 75.6007C79.1487 72.0527 81.9631 67.8407 83.8832 63.205C85.8034 58.5694 86.7917 53.6009 86.7917 48.5833C86.7917 43.5657 85.8034 38.5973 83.8832 33.9616C81.9631 29.326 79.1487 25.1139 75.6007 21.566C72.0527 18.018 67.8407 15.2036 63.205 13.2834C58.5694 11.3633 53.6009 10.375 48.5833 10.375C43.5657 10.375 38.5973 11.3633 33.9616 13.2834C29.326 15.2036 25.1139 18.018 21.566 21.566C18.018 25.1139 15.2036 29.326 13.2834 33.9616C11.3633 38.5973 10.375 43.5657 10.375 48.5833Z" stroke="black" stroke-width="20" stroke-linecap="round" stroke-linejoin="round"/>
</svg>
