<svg width="73" height="58" viewBox="0 0 73 58" fill="none" xmlns="http://www.w3.org/2000/svg">
<path d="M11.125 47.5C11.125 49.467 11.9064 51.3535 13.2973 52.7444C14.6882 54.1353 16.5746 54.9167 18.5417 54.9167C20.5087 54.9167 22.3951 54.1353 23.786 52.7444C25.1769 51.3535 25.9583 49.467 25.9583 47.5M11.125 47.5C11.125 45.533 11.9064 43.6465 13.2973 42.2556C14.6882 40.8647 16.5746 40.0833 18.5417 40.0833C20.5087 40.0833 22.3951 40.8647 23.786 42.2556C25.1769 43.6465 25.9583 45.533 25.9583 47.5M11.125 47.5H3.70833V32.6667M25.9583 47.5H48.2083M48.2083 47.5C48.2083 49.467 48.9897 51.3535 50.3806 52.7444C51.7715 54.1353 53.658 54.9167 55.625 54.9167C57.592 54.9167 59.4785 54.1353 60.8694 52.7444C62.2603 51.3535 63.0417 49.467 63.0417 47.5M48.2083 47.5C48.2083 45.533 48.9897 43.6465 50.3806 42.2556C51.7715 40.8647 53.658 40.0833 55.625 40.0833C57.592 40.0833 59.4785 40.8647 60.8694 42.2556C62.2603 43.6465 63.0417 45.533 63.0417 47.5M63.0417 47.5H70.4583V25.25M0 3H40.7917V47.5M70.4583 25.25H40.7917M70.4583 25.25L59.3333 6.70833H40.7917M3.70833 17.8333H18.5417" stroke="black" stroke-width="5" stroke-linecap="round" stroke-linejoin="round"/>
</svg>
