<svg width="71" height="71" viewBox="0 0 71 71" fill="none" xmlns="http://www.w3.org/2000/svg">
<path d="M5.125 65.875V59.125C5.125 55.5446 6.54732 52.1108 9.07906 49.5791C11.6108 47.0473 15.0446 45.625 18.625 45.625H32.125C35.7054 45.625 39.1392 47.0473 41.6709 49.5791C44.2027 52.1108 45.625 55.5446 45.625 59.125V65.875M49 5.56335C51.9039 6.30687 54.4778 7.99572 56.3158 10.3637C58.1538 12.7316 59.1515 15.6439 59.1515 18.6415C59.1515 21.6391 58.1538 24.5514 56.3158 26.9193C54.4778 29.2872 51.9039 30.9761 49 31.7196M65.875 65.8747V59.1247C65.8579 56.1451 64.8555 53.2549 63.024 50.9045C61.1926 48.5542 58.635 46.8758 55.75 46.1309M11.875 18.625C11.875 22.2054 13.2973 25.6392 15.8291 28.1709C18.3608 30.7027 21.7946 32.125 25.375 32.125C28.9554 32.125 32.3892 30.7027 34.9209 28.1709C37.4527 25.6392 38.875 22.2054 38.875 18.625C38.875 15.0446 37.4527 11.6108 34.9209 9.07906C32.3892 6.54732 28.9554 5.125 25.375 5.125C21.7946 5.125 18.3608 6.54732 15.8291 9.07906C13.2973 11.6108 11.875 15.0446 11.875 18.625Z" stroke="black" stroke-width="10" stroke-linecap="round" stroke-linejoin="round"/>
</svg>
